<svg width="1000" height="1000" viewBox="0 0 1000 1000" fill="none" xmlns="http://www.w3.org/2000/svg">
<path d="M447.3 451.9C419.5 479.7 419.5 524.8 447.3 552.6C475.1 580.4 520.2 580.4 548 552.6C575.8 524.8 575.8 479.7 548 451.9C520.2 424.2 475.1 424.2 447.3 451.9ZM530.2 534.8C512.3 552.7 483.1 552.7 465.2 534.8C447.3 516.9 447.3 487.7 465.2 469.8C483.1 451.9 512.3 451.9 530.2 469.8C548.1 487.7 548.1 516.9 530.2 534.8Z" fill="black"/>
<path d="M656.1 361.8L766.3 251.6C778.5 256.7 793.1 254.3 802.9 244.4C815.9 231.4 815.9 210.1 802.9 197.1C789.9 184.1 768.6 184.1 755.6 197.1C745.7 207 743.3 221.6 748.4 233.7L638.2 343.9L625.6 331.3C622.1 327.8 616.8 326.7 612.1 328.4C538.3 356.8 457 356.8 383.2 328.4C378.5 326.6 373.3 327.7 369.7 331.3L357.3 343.7L249.5 235.8C254.6 223.6 252.2 209 242.3 199.2C229.3 186.2 208 186.2 195 199.2C182 212.2 182 233.5 195 246.5C204.9 256.4 219.5 258.8 231.6 253.7L339.5 361.6L326.7 374.4C323.2 377.9 322.1 383.2 323.8 387.9C352.3 461.7 352.3 543 323.8 616.8C322 621.5 323.1 626.7 326.7 630.3L339.3 642.9L233.7 748.4C221.5 743.3 206.9 745.7 197.1 755.6C184.1 768.6 184.1 789.9 197.1 802.9C210.1 815.9 231.4 815.9 244.4 802.9C254.3 793 256.7 778.4 251.6 766.3L357.2 660.7L369.8 673.3C373.3 676.8 378.6 677.9 383.3 676.2C457.1 647.8 538.4 647.8 612.2 676.2C616.9 678 622.1 676.9 625.7 673.3L638.5 660.5L746.4 768.4C741.3 780.6 743.7 795.2 753.6 805C766.6 818 787.9 818 800.9 805C813.9 792 813.9 770.7 800.9 757.7C791 747.8 776.4 745.4 764.3 750.5L656.2 642.6L668.6 630.2C672.1 626.7 673.2 621.4 671.5 616.7C643 542.9 643 461.6 671.5 387.8C673.7 382.1 671.5 375.8 666.5 372.6C666 371.8 665.4 371.1 664.8 370.5L656.1 361.8ZM645.1 386.5C618.2 461.5 618.2 543.1 645.1 618.1L613.5 649.7C538.5 622.8 456.9 622.8 381.9 649.7L350.3 618.1C377.2 543.1 377.2 461.5 350.3 386.5L381.9 354.9C456.9 381.8 538.5 381.8 613.5 354.9L645.1 386.5Z" fill="black"/>
<path d="M280 345.8C286.3 342.8 288.9 335.2 285.9 328.9C282.9 322.6 275.3 320 269 323C227.9 342.9 178.6 334.5 146.4 302.3C104.6 260.5 104.6 192.4 146.4 150.5C188.2 108.6 256.3 108.7 298.2 150.5C330.5 182.8 338.8 232.1 318.9 273.1C315.9 279.4 318.5 286.9 324.8 290C329.8 292.4 335.5 291.3 339.2 287.6C340.2 286.6 341 285.5 341.6 284.2C366.2 233.5 355.9 172.6 316 132.7C264.3 81 180.2 81 128.5 132.7C76.8 184.4 76.8 268.5 128.5 320.2C168.4 360 229.2 370.3 280 345.8Z" fill="black"/>
<path d="M715.8 658.4C709.5 661.4 706.9 669 709.9 675.3C712.9 681.6 720.5 684.2 726.8 681.2C767.9 661.3 817.2 669.6 849.4 701.9C891.2 743.7 891.2 811.8 849.4 853.7C807.6 895.6 739.5 895.5 697.6 853.7C665.3 821.4 657 772.1 676.9 731.1C679.9 724.8 677.3 717.3 671 714.2C664.7 711.2 657.2 713.8 654.1 720.1C629.5 770.8 639.8 831.7 679.7 871.6C731.4 923.3 815.5 923.3 867.2 871.6C918.9 819.9 918.9 735.8 867.2 684.1C827.4 644.2 766.6 633.9 715.8 658.4Z" fill="black"/>
<path d="M326.8 712.1C320.5 715.1 317.9 722.7 320.9 729C340.8 770.1 332.4 819.4 300.2 851.6C258.4 893.4 190.3 893.4 148.4 851.6C106.6 809.8 106.6 741.7 148.4 699.8C180.7 667.5 230 659.2 271 679.1C277.3 682.1 284.8 679.5 287.9 673.2C290.9 666.9 288.3 659.4 282 656.3C231.3 631.7 170.4 642 130.5 681.9C78.8 733.6 78.8 817.7 130.5 869.4C182.2 921.1 266.3 921.1 318 869.4C357.9 829.5 368.1 768.7 343.6 717.9C340.6 711.7 333.1 709 326.8 712.1Z" fill="black"/>
<path d="M681.9 130.6C642 170.5 631.8 231.3 656.3 282.1C659.3 288.4 666.9 291 673.2 288C679.5 285 682.1 277.4 679.1 271.1C659.2 230 667.6 180.7 699.8 148.5C741.6 106.7 809.7 106.7 851.6 148.5C893.4 190.3 893.4 258.4 851.6 300.3C819.3 332.6 770 340.9 729 321C722.7 318 715.2 320.6 712.1 326.9C709.1 333.2 711.7 340.7 718 343.8C768.7 368.4 829.6 358.1 869.5 318.2C921.2 266.5 921.2 182.4 869.5 130.7C817.7 78.9 733.6 78.9 681.9 130.6Z" fill="black"/>
</svg>
