<svg width="100" height="98" viewBox="0 0 100 98" fill="none" xmlns="http://www.w3.org/2000/svg">
<g clip-path="url(#clip0_19_2)">
<path d="M77.59 26.18C73.25 26.41 67.86 27.37 64.39 28.53C62.95 29.01 60.08 30.1299 58.64 30.7599C55.81 32.0099 53.23 33.79 51.34 35.8C50.89 36.27 50.57 36.56 50.54 36.5C50.45 36.26 49.7 35.31 49.08 34.68C47.39 32.9 44.32 31.1599 40.87 30.0099C32.73 27.2899 22.07 26.9199 13.34 29.0599C10.08 29.8499 6.67998 31.2199 4.74998 32.5099C2.57998 33.9499 1.03998 35.6599 0.499979 37.2099C0.149979 38.2299 -0.160021 41.33 -0.090021 43.15C-0.0600209 43.98 -2.09555e-05 44.3 0.169979 44.77C1.38998 48.03 5.75998 50.87 12.35 52.68C12.75 52.79 13.09 52.92 13.11 52.97C13.13 53.02 12.98 53.13 12.77 53.22C11.86 53.58 10.01 55.0399 9.55998 55.7599C9.09998 56.5099 8.87998 57.9299 8.92998 60.0099C8.95998 61.1199 8.96998 61.26 9.19998 61.75C9.62998 62.69 10.82 63.67 12.47 64.44C15.86 66.03 21.85 67.1 27.38 67.1H28.7L28.65 66C28.62 65.4 28.59 64.5 28.59 64V63.09L27.11 63.03C23.51 62.89 20.46 62.41 18.02 61.6C16.79 61.19 15.06 60.31 14.39 59.75C14.06 59.49 13.81 59.2399 13.81 59.2099C13.82 59.0599 15.06 58.2 15.83 57.83C17.82 56.87 19.74 56.2499 22.15 55.8099C24.24 55.4299 27.12 55.1599 29.06 55.1599H30.08L30.78 54.49C32.03 53.3 33.58 52.53 35.2 52.32C36.39 52.17 61.31 51.38 61.99 51.48C63.61 51.71 65.08 52.44 66.42 53.69C66.63 53.9 66.86 54.0299 66.94 54.0099C67.32 53.8999 70.86 53.78 72.27 53.83C76.58 53.98 79.47 54.62 81.37 55.83L81.83 56.13L81.28 56.68C80.35 57.62 79.1 58.4 77.25 59.19C76.3 59.6 73.67 60.5 73.43 60.5C73.36 60.5 73.26 60.33 73.2 60.1L73.09 59.7L70.91 58.77C69.71 58.26 68.7 57.84 68.68 57.84C68.65 57.84 68.65 58.1199 68.68 58.4599C68.71 58.7999 68.79 60.5 68.84 62.22C68.9 63.95 68.95 65.37 68.96 65.37C68.99 65.41 71.81 64.97 72.96 64.75C77.25 63.92 81.71 62.33 83.93 60.85C85.42 59.85 86.36 58.8 86.68 57.8C86.82 57.37 86.82 57.28 86.68 56.32C86.2 52.95 85.89 52.31 84.3 51.25L83.42 50.67L85.17 50.09C88.83 48.88 92.51 47.22 94.49 45.9C97.54 43.85 99.3 41.76 99.82 39.54C100 38.79 99.95 38.23 99.51 36.03C99.09 33.93 98.81 32.9299 98.45 32.2599C98.1 31.6099 96.68 30.15 95.84 29.6C91.94 27.03 85.16 25.77 77.59 26.18ZM82.63 33.3C84.92 33.48 87.17 33.89 88.89 34.45C90.68 35.03 92.86 36.26 93.44 37.02L93.67 37.32L93.35 37.9599C92.9 38.8499 92.6 39.27 91.82 40.08C90.63 41.31 89.03 42.4599 87.32 43.3099C81.65 46.1399 74.77 47.62 68.05 47.45C66.2 47.4 64.5 47.2799 64.18 47.1599C64.11 47.1299 64.61 46.89 65.3 46.63C65.99 46.35 68.52 45.3599 70.93 44.4099L75.31 42.68L80.12 42.28C82.77 42.07 85.17 41.8199 85.47 41.7599C86.21 41.5999 87.21 41.12 87.45 40.82C87.66 40.55 87.69 40.19 87.55 39.57C87.35 38.69 87.16 38.53 86.17 38.35C85.58 38.25 85.62 38.25 74.19 39.19C63.28 40.09 63.78 40.04 62.85 40.35C62.41 40.5 61.92 40.72 61.77 40.85C61.51 41.06 61.49 41.14 61.46 41.64C61.42 42.35 61.58 42.99 61.86 43.19C61.98 43.28 62.32 43.41 62.62 43.49C63.13 43.61 63.32 43.61 65.58 43.44C66.9 43.34 67.99 43.27 68.01 43.29C68.03 43.31 66.31 44 64.18 44.85L60.32 46.38L59.35 45.99C58.82 45.78 58.05 45.45 57.65 45.25C56.46 44.65 54.99 43.4 54.86 42.88C54.71 42.29 56.24 40.45 57.93 39.18C59.76 37.83 61.38 37.02 65 35.67C67.95 34.58 72.01 33.71 75.71 33.39C76.3 33.35 76.92 33.29 77.08 33.27C77.81 33.2 81.62 33.23 82.63 33.3ZM30.01 35.07C36.58 35.62 42.02 37.52 44.81 40.22C45.49 40.88 45.88 41.43 45.88 41.72C45.88 42.06 45.12 43.17 44.44 43.83C43.67 44.59 42.31 45.4799 40.92 46.1599L39.79 46.7099L35.12 44.8C32.55 43.75 30.32 42.84 30.15 42.77L29.85 42.65L32.98 41.07C34.7 40.2 36.19 39.4 36.31 39.3C36.57 39.06 36.65 38.53 36.53 37.74C36.42 37.01 36.19 36.73 35.49 36.45C34.84 36.19 33.19 36.17 32.47 36.42C31.52 36.74 17.68 43.95 17.26 44.34C17.07 44.53 17.03 46.0199 17.21 46.3099C17.5 46.7499 18.65 47.12 19.72 47.13C20.66 47.13 21.74 46.69 25.56 44.78L27.36 43.88L32.02 45.78C34.59 46.83 36.63 47.7 36.57 47.74C36.15 47.96 32.85 48.58 30.79 48.82C29.17 49.01 23.62 49.0299 22.07 48.8599C16.43 48.2299 12.19 46.94 9.13998 44.92C7.84998 44.07 6.59998 42.75 6.11998 41.77L5.96998 41.45L6.29998 41.04C8.47998 38.33 12.63 36.42 18.35 35.48C22.17 34.88 26.04 34.73 30.01 35.07Z" fill="black"/>
<path d="M47.17 53.4099C34.09 53.8699 34.84 53.8099 33.46 54.4799C31.78 55.3099 30.57 56.8899 30.19 58.7599C30.04 59.4599 30.04 59.7099 30.22 64.8099C30.43 70.7099 30.44 70.88 31.06 72.05C31.72 73.31 32.58 74.1399 33.9 74.7799C35.4 75.5099 34.35 75.49 49.07 74.99C58.51 74.66 62.16 74.51 62.61 74.42C62.94 74.35 63.58 74.11 64.03 73.9C65.4 73.22 66.62 71.8499 67.12 70.4099C67.47 69.3799 67.49 69.0099 67.3 63.5299C67.1 57.79 67.08 57.5599 66.48 56.3599C65.67 54.7399 64.08 53.51 62.35 53.12C61.46 52.93 60.8 52.9399 47.17 53.4099ZM50.65 56.6799C51.4 56.8699 52.54 57.38 53.13 57.79C56.45 60.08 57.47 64.6699 55.42 68.1099C53.86 70.7199 50.92 72.2199 47.95 71.8799C44.12 71.4499 41.25 68.4299 41.01 64.5799C40.92 63.1399 41.35 61.4699 42.12 60.1599C42.58 59.3599 43.93 58.01 44.73 57.55C45.47 57.11 46.53 56.71 47.41 56.54C48.29 56.37 49.75 56.4399 50.65 56.6799Z" fill="black"/>
<path d="M47.34 59.8C45.83 60.32 44.74 61.44 44.3 62.95C44.1 63.62 44.12 64.86 44.33 65.55C44.88 67.34 46.55 68.65 48.41 68.77C49.81 68.86 51 68.42 51.98 67.44C52.98 66.44 53.41 65.32 53.33 63.94C53.23 62 51.94 60.34 50.11 59.77C49.32 59.53 48.09 59.54 47.34 59.8Z" fill="black"/>
<path d="M26.16 58.29C25.83 58.3 24.22 58.35 22.57 58.4C18.59 58.53 18.45 58.57 18.44 59.68C18.43 60.39 18.54 60.56 19.2 60.78C19.58 60.92 19.91 60.93 21.74 60.92C22.9 60.91 24.89 60.89 26.17 60.85L28.49 60.79L28.5 59.87C28.51 59.37 28.55 58.8 28.6 58.59L28.69 58.23L27.73 58.25C27.19 58.25 26.49 58.27 26.16 58.29Z" fill="black"/>
</g>
<defs>
<clipPath id="clip0_19_2">
<rect width="100" height="98" fill="white"/>
</clipPath>
</defs>
</svg>
